<?xml version="1.0" standalone="no"?>
<!DOCTYPE svg PUBLIC "-//W3C//DTD SVG 20010904//EN"
 "http://www.w3.org/TR/2001/REC-SVG-20010904/DTD/svg10.dtd">
<svg version="1.0" xmlns="http://www.w3.org/2000/svg"
 width="1800.000000pt" height="600.000000pt" viewBox="0 0 1800.000000 600.000000"
 preserveAspectRatio="xMidYMid meet">
<metadata>
Created by potrace 1.16, written by Peter Selinger 2001-2019
</metadata>
<g transform="translate(0.000000,600.000000) scale(0.100000,-0.100000)"
fill="#000000" stroke="none">
<path d="M15786 5530 c-291 -71 -537 -132 -547 -135 -26 -9 -24 -33 7 -78 49
-73 56 -108 64 -357 5 -129 9 -369 9 -534 l1 -298 -22 5 c-13 3 -70 20 -128
37 -201 59 -392 78 -615 61 -272 -21 -495 -78 -712 -181 -526 -250 -873 -721
-1003 -1360 -66 -323 -68 -784 -4 -1095 98 -487 333 -843 689 -1048 320 -184
746 -228 1091 -112 223 75 470 256 640 468 32 40 61 75 64 80 4 4 35 -131 71
-299 39 -188 69 -308 77 -311 7 -3 242 52 522 122 569 142 546 132 470 201
-46 41 -71 111 -91 249 -9 59 -13 689 -16 2385 -2 1268 -3 2311 -3 2318 0 6
-8 12 -17 11 -10 0 -256 -58 -547 -129z m-1011 -1450 c46 -7 97 -23 151 -50
223 -109 345 -368 384 -810 6 -68 10 -522 10 -1100 l-1 -985 -77 -61 c-210
-166 -407 -231 -623 -204 -173 21 -284 72 -394 185 -189 192 -289 502 -326
1020 -14 201 -6 693 15 870 83 702 310 1081 680 1135 74 11 103 11 181 0z"/>
<path d="M3927 5373 c-16 -15 -4 -39 26 -53 71 -33 85 -131 69 -463 -6 -133
-46 -816 -87 -1517 -41 -701 -84 -1448 -95 -1660 -40 -750 -63 -959 -128
-1133 -28 -78 -91 -153 -133 -159 -16 -2 -25 -11 -27 -25 l-3 -23 296 0 296 0
-3 23 c-2 14 -11 23 -25 25 -30 4 -79 63 -93 109 -35 125 -32 318 14 933 13
173 63 974 111 1780 47 806 89 1478 93 1494 6 25 47 -73 254 -610 136 -351
405 -1048 598 -1549 194 -500 462 -1196 597 -1545 134 -349 251 -640 258 -646
17 -13 82 -11 95 2 4 5 175 457 378 1004 204 547 468 1256 587 1575 119 319
318 854 443 1189 211 566 228 607 234 570 4 -21 44 -817 88 -1769 45 -952 86
-1818 91 -1925 19 -346 -1 -533 -63 -585 -16 -14 -36 -25 -44 -25 -10 0 -14
-8 -12 -23 l3 -22 708 -2 c390 -2 720 0 733 3 27 7 34 44 8 44 -59 0 -124 71
-164 177 -29 79 -67 276 -84 443 -17 161 -219 3357 -237 3760 -17 363 2 509
73 546 21 11 28 21 26 37 l-3 22 -545 0 -544 0 -603 -1575 c-331 -866 -617
-1613 -634 -1660 l-33 -85 -17 40 c-16 37 -557 1353 -1069 2600 -122 297 -235
573 -252 613 l-30 72 -572 0 c-315 0 -576 -3 -579 -7z"/>
<path d="M2310 4230 c0 -3 18 -24 40 -45 91 -89 191 -265 240 -420 50 -162 76
-348 83 -585 5 -161 -7 -394 -22 -432 l-11 -28 -645 0 -645 0 0 65 c0 94 36
358 69 511 37 164 97 346 150 452 77 153 205 352 279 435 19 20 31 37 27 37
-4 0 -62 -11 -129 -25 -701 -142 -1221 -659 -1396 -1390 -111 -462 -86 -996
67 -1405 204 -547 615 -893 1188 -1002 104 -20 152 -22 365 -22 273 0 353 11
556 79 382 127 720 419 990 854 55 89 57 94 39 107 -26 20 -28 19 -62 -28 -48
-66 -152 -169 -234 -230 -221 -166 -444 -244 -726 -255 -363 -14 -634 81 -828
289 -231 246 -346 620 -362 1171 l-6 207 1118 0 1118 0 -6 168 c-24 696 -351
1214 -896 1419 -110 41 -361 92 -361 73z"/>
<path d="M11230 4232 c0 -2 24 -30 53 -61 170 -184 280 -471 316 -830 19 -179
13 -417 -14 -578 l-6 -33 -651 0 -651 0 7 100 c15 236 62 500 122 692 63 200
183 432 310 600 l73 97 -32 -5 c-92 -16 -293 -70 -372 -101 -651 -255 -1067
-832 -1156 -1608 -15 -131 -15 -454 0 -580 31 -259 93 -479 190 -681 84 -175
166 -290 300 -425 199 -200 416 -323 696 -392 184 -46 239 -52 485 -52 205 0
250 3 347 23 510 103 901 409 1241 973 l22 36 -26 14 c-23 12 -27 11 -36 -5
-24 -42 -144 -169 -214 -225 -141 -114 -247 -173 -407 -226 -138 -45 -265 -65
-421 -65 -218 0 -379 35 -537 116 -279 144 -459 423 -543 844 -34 171 -45 281
-53 513 l-6 197 1116 0 1117 0 0 115 c0 836 -485 1459 -1202 1543 -38 5 -68 6
-68 4z"/>
<path d="M16716 1079 c-3 -17 -6 -50 -6 -73 l1 -41 24 47 c14 25 36 56 51 67
54 43 55 41 52 -201 l-3 -222 -25 -13 c-22 -11 -9 -13 90 -13 106 0 113 1 92
16 -22 15 -22 19 -22 235 l0 220 23 -7 c33 -10 46 -23 78 -79 l29 -50 0 50 c0
102 13 95 -195 95 l-182 0 -7 -31z"/>
<path d="M17165 1086 c24 -24 24 -29 19 -123 -13 -222 -22 -284 -45 -309 l-22
-24 68 0 68 0 -26 20 c-14 11 -29 34 -32 51 -9 39 5 343 15 332 4 -4 40 -97
81 -205 41 -109 76 -198 79 -198 4 0 35 89 70 198 35 108 67 201 71 205 4 5
10 -76 14 -179 8 -187 7 -188 -15 -206 -22 -18 -20 -18 91 -18 99 0 111 2 89
13 -30 15 -35 44 -45 277 l-7 157 23 17 c23 15 20 16 -62 16 l-85 0 -45 -142
c-41 -126 -47 -140 -56 -118 -5 14 -29 78 -52 143 l-43 117 -89 0 -88 0 24
-24z"/>
</g>
</svg>
