<?xml version="1.0" standalone="no"?>
<!DOCTYPE svg PUBLIC "-//W3C//DTD SVG 20010904//EN"
 "http://www.w3.org/TR/2001/REC-SVG-20010904/DTD/svg10.dtd">
<svg version="1.0" xmlns="http://www.w3.org/2000/svg"
 width="4096.000000pt" height="1331.000000pt" viewBox="0 0 4096.000000 1331.000000"
 preserveAspectRatio="xMidYMid meet">
<metadata>
Created by potrace 1.16, written by Peter Selinger 2001-2019
</metadata>
<g transform="translate(0.000000,1331.000000) scale(0.100000,-0.100000)"
fill="#000000" stroke="none">
<path d="M6879 10012 c-25 -10 -120 -57 -210 -104 -90 -47 -279 -144 -419
-216 -140 -71 -741 -378 -1335 -682 -594 -304 -1179 -602 -1299 -664 -247
-125 -303 -167 -325 -246 -15 -55 -11 -126 6 -123 7 2 12 -3 10 -10 -1 -6 4
-11 10 -10 7 2 12 -3 10 -10 -1 -6 4 -11 10 -10 7 2 12 -3 10 -10 -1 -6 4 -11
10 -10 7 2 12 -3 10 -10 -1 -6 4 -11 10 -10 7 2 12 -3 10 -10 -1 -6 4 -11 10
-10 7 2 12 -3 10 -10 -1 -6 4 -11 10 -10 7 2 12 -3 10 -10 -1 -6 4 -11 10 -10
7 2 12 -3 10 -10 -1 -6 4 -11 10 -10 7 2 12 -3 10 -10 -1 -6 4 -11 10 -10 7 2
12 -3 10 -10 -1 -6 3 -11 10 -10 8 2 10 -4 6 -14 -5 -13 -2 -15 11 -10 9 4 15
3 12 -1 -3 -5 84 -54 192 -109 108 -56 288 -148 399 -205 l203 -103 -125 -63
c-69 -34 -125 -67 -125 -73 0 -5 -4 -8 -9 -5 -10 7 -61 -16 -61 -27 0 -4 14
-1 30 8 28 14 34 13 31 -7 0 -5 5 -7 12 -5 6 1 11 -4 10 -10 -2 -7 3 -12 10
-10 6 1 11 -4 10 -10 -2 -7 3 -12 10 -10 6 1 11 -4 10 -10 -2 -7 3 -12 10 -10
6 1 11 -4 10 -10 -2 -7 3 -12 10 -10 6 1 11 -4 10 -10 -2 -7 3 -12 10 -10 6 1
11 -4 10 -10 -2 -7 3 -12 10 -10 6 1 11 -4 10 -10 -2 -7 3 -12 10 -10 6 1 11
-4 10 -10 -2 -7 3 -12 10 -10 6 1 11 -4 10 -10 -2 -7 3 -12 10 -10 6 1 11 -4
10 -10 -2 -7 3 -12 10 -10 6 1 11 -4 10 -10 -2 -7 3 -12 10 -10 6 1 11 -4 10
-10 -2 -7 3 -12 10 -10 6 1 11 -4 10 -10 -2 -7 3 -12 10 -10 6 1 11 -4 10 -10
-2 -7 3 -12 10 -10 6 1 11 -4 10 -10 -2 -7 2 -12 8 -10 6 1 13 -6 14 -15 2
-10 0 -18 -3 -18 -4 0 -18 -10 -32 -21 l-25 -20 32 15 c17 9 35 20 38 26 4 6
10 8 15 5 5 -3 11 -1 15 4 3 6 -4 8 -16 6 -12 -2 -19 -1 -15 2 4 4 -68 82
-160 174 -103 103 -162 169 -155 173 7 5 10 2 9 -6 -2 -7 3 -12 9 -11 7 2 12
-3 10 -10 -1 -6 4 -11 10 -10 7 2 12 -3 10 -10 -1 -6 4 -11 10 -10 7 2 12 -3
10 -10 -1 -6 4 -11 10 -10 7 2 12 -3 10 -10 -1 -6 4 -11 10 -10 7 2 12 -3 10
-10 -1 -6 4 -11 10 -10 7 2 12 -3 10 -10 -1 -6 4 -11 10 -10 7 2 12 -3 10 -10
-1 -6 4 -11 10 -10 7 2 12 -3 10 -10 -1 -6 4 -11 10 -10 7 2 12 -3 10 -10 -1
-6 4 -11 10 -10 7 2 12 -3 10 -10 -1 -6 4 -11 10 -10 7 2 12 -3 10 -10 -1 -6
4 -11 10 -10 7 2 12 -3 10 -10 -1 -6 4 -11 10 -10 7 2 12 -3 10 -10 -1 -6 4
-11 10 -10 7 2 12 -3 10 -10 -1 -6 4 -11 10 -10 7 2 12 -3 10 -10 -1 -6 4 -11
10 -10 7 2 12 -2 10 -8 -6 -31 56 -9 243 86 l206 104 339 -173 c187 -95 516
-263 730 -373 215 -110 525 -269 690 -354 392 -201 340 -198 663 -33 566 288
1741 888 1780 910 l43 23 394 -201 395 -202 -38 -21 c-20 -11 -167 -88 -327
-169 -550 -281 -1661 -849 -1940 -993 -154 -79 -353 -180 -442 -226 l-162 -82
-223 112 c-369 187 -1457 742 -1545 789 -33 18 -64 30 -67 27 -3 -4 -6 -1 -6
5 0 7 -4 12 -8 12 -5 0 -9 -6 -9 -14 0 -7 10 -13 21 -12 12 1 20 -4 19 -11 -2
-7 3 -12 10 -10 6 1 11 -4 10 -10 -2 -7 3 -12 10 -10 6 1 11 -4 10 -10 -2 -7
3 -12 10 -10 6 1 11 -4 10 -10 -2 -7 3 -12 10 -10 6 1 11 -4 10 -10 -2 -7 3
-12 10 -10 6 1 11 -4 10 -10 -2 -7 3 -12 10 -10 6 1 11 -4 10 -10 -2 -7 3 -12
10 -10 6 1 11 -4 10 -10 -2 -7 3 -12 10 -10 6 1 11 -4 10 -10 -2 -7 3 -12 10
-10 6 1 11 -4 10 -10 -2 -7 3 -12 10 -10 6 1 11 -4 10 -10 -2 -7 3 -12 10 -10
6 1 11 -4 10 -10 -2 -7 3 -12 10 -10 6 1 11 -4 10 -10 -2 -7 3 -12 10 -10 6 1
11 -4 10 -10 -2 -7 3 -12 10 -10 6 1 11 -4 10 -10 -2 -7 3 -12 10 -10 6 1 11
-4 10 -10 -2 -7 3 -12 10 -10 6 1 11 -4 10 -10 -2 -7 3 -12 10 -10 6 1 11 -4
10 -10 -2 -7 3 -12 10 -10 6 1 11 -4 10 -10 -2 -7 3 -12 10 -10 6 1 11 -4 10
-10 -2 -7 3 -12 10 -10 6 1 11 -4 10 -10 -2 -7 3 -12 10 -10 6 1 11 -4 10 -10
-2 -7 3 -12 10 -10 6 1 11 -4 10 -10 -2 -7 3 -12 10 -10 6 1 11 -4 10 -10 -2
-7 3 -12 10 -10 6 1 11 -4 10 -10 -2 -7 3 -12 10 -10 6 1 11 -4 10 -10 -2 -7
3 -12 10 -10 6 1 11 -4 10 -10 -2 -7 3 -12 10 -10 6 1 11 -4 10 -10 -2 -7 3
-12 10 -10 6 1 11 -4 10 -10 -2 -7 3 -12 10 -10 6 1 11 -4 10 -10 -2 -7 3 -12
10 -10 6 1 11 -4 10 -10 -2 -7 3 -12 10 -10 6 1 11 -4 10 -10 -2 -7 3 -12 10
-10 6 1 11 -4 10 -10 -2 -7 3 -12 10 -10 6 1 11 -4 10 -10 -2 -7 3 -12 10 -10
6 1 11 -4 10 -10 -2 -7 3 -12 10 -10 6 1 11 -4 10 -10 -2 -7 3 -12 10 -10 6 1
11 -4 10 -10 -2 -7 3 -12 10 -10 6 1 11 -4 10 -10 -2 -7 3 -12 10 -10 6 1 11
-4 10 -10 -2 -7 3 -12 10 -10 6 1 11 -4 10 -10 -2 -7 3 -12 10 -10 6 1 11 -4
10 -10 -2 -7 3 -12 10 -10 6 1 11 -4 10 -10 -2 -7 3 -12 10 -10 6 1 11 -4 10
-10 -2 -7 3 -12 10 -10 6 1 11 -4 10 -10 -2 -7 3 -12 10 -10 6 1 11 -4 10 -10
-2 -7 3 -12 10 -10 6 1 11 -4 10 -10 -2 -7 3 -12 10 -10 6 1 11 -4 10 -10 -2
-7 3 -12 10 -10 6 1 11 -4 10 -10 -2 -7 3 -12 10 -10 6 1 11 -4 10 -10 -2 -7
3 -12 10 -10 6 1 11 -4 10 -10 -2 -7 3 -12 10 -10 6 1 11 -4 10 -10 -2 -7 3
-12 10 -10 6 1 11 -4 10 -10 -2 -7 0 -12 5 -10 4 1 7 -2 7 -8 0 -5 -4 -9 -8
-7 -5 1 -6 -2 -3 -7 11 -17 127 -72 139 -65 7 4 9 4 5 -1 -9 -9 -26 0 322
-177 l275 -140 66 4 c62 5 90 17 515 233 247 125 463 235 479 245 17 10 197
102 400 205 204 104 446 228 540 277 93 48 173 88 177 88 5 0 45 -20 91 -44
45 -24 221 -114 391 -201 l308 -157 -183 -95 c-101 -52 -330 -169 -509 -260
-179 -91 -383 -196 -455 -233 -71 -37 -242 -125 -380 -195 -291 -149 -584
-299 -845 -433 -102 -52 -193 -102 -204 -111 -10 -9 -20 -14 -23 -13 -3 2 -7
1 -10 -2 -4 -3 1 -6 11 -6 9 0 14 -5 11 -10 -4 -6 -1 -9 7 -8 7 2 12 -3 11 -9
-2 -7 3 -12 10 -10 6 1 11 -4 10 -10 -2 -7 3 -12 10 -10 6 1 11 -4 10 -10 -2
-7 3 -12 10 -10 6 1 11 -4 10 -10 -2 -7 3 -12 10 -10 6 1 11 -4 10 -10 -2 -7
3 -12 10 -10 6 1 11 -4 10 -10 -2 -7 3 -12 10 -10 6 1 11 -4 10 -10 -2 -7 3
-12 10 -10 6 1 11 -4 10 -10 -2 -7 3 -12 10 -10 6 1 11 -4 10 -10 -2 -7 3 -12
10 -10 6 1 11 -4 10 -10 -2 -7 3 -12 10 -10 6 1 11 -4 10 -10 -2 -7 3 -12 10
-10 6 1 11 -4 10 -10 -2 -7 3 -12 10 -10 6 1 11 -4 10 -10 -2 -7 3 -12 10 -10
6 1 11 -4 10 -10 -2 -7 3 -12 10 -10 6 1 11 -4 10 -10 -2 -7 3 -12 10 -10 6 1
11 -4 10 -10 -2 -7 3 -12 10 -10 6 1 11 -3 10 -10 -2 -9 4 -9 25 0 33 15 311
155 487 247 72 37 254 130 405 208 1248 636 2010 1029 2037 1049 112 86 108
299 -7 381 -21 15 -240 130 -488 257 -248 126 -448 233 -444 237 4 4 198 104
432 224 234 119 450 233 480 253 130 87 150 268 41 378 -21 20 -202 118 -500
270 l-469 238 461 235 c271 138 478 249 501 270 53 47 76 100 76 178 0 77 -27
140 -80 184 -30 26 -1604 837 -3192 1645 -338 172 -350 177 -415 180 -48 2
-81 -2 -114 -15z m1546 -1243 c798 -408 1453 -744 1457 -748 4 -3 -359 -192
-805 -420 -447 -228 -1101 -562 -1455 -743 l-643 -329 -297 152 c-596 304
-742 379 -984 503 -649 331 -836 426 -1385 707 -133 68 -239 127 -235 130 10
10 75 43 1422 732 349 178 806 411 1015 518 209 106 398 203 420 216 22 12 40
23 40 23 1 0 653 -333 1450 -741z m-3181 -2732 c4 5 6 1 4 -7 -1 -8 3 -14 10
-12 6 1 11 -4 10 -10 -2 -7 3 -12 10 -10 6 1 11 -4 10 -10 -2 -7 3 -12 10 -10
6 1 11 -4 10 -10 -2 -7 3 -12 10 -10 6 1 11 -4 10 -10 -2 -7 3 -12 10 -10 6 1
11 -4 10 -10 -2 -7 3 -12 10 -10 6 1 11 -4 10 -10 -2 -7 3 -12 10 -10 6 1 11
-4 10 -10 -2 -7 3 -12 10 -10 6 1 11 -4 10 -10 -2 -7 3 -12 9 -11 7 2 12 -3
10 -10 -1 -6 4 -11 11 -10 6 2 11 -3 10 -10 -2 -6 3 -11 9 -10 7 2 12 -3 10
-10 -1 -6 4 -11 11 -9 6 1 11 -4 10 -10 -2 -7 3 -12 10 -10 6 1 11 -4 10 -10
-2 -7 3 -12 10 -10 6 1 11 -4 10 -10 -2 -7 3 -12 10 -10 6 1 11 -4 10 -10 -2
-7 3 -12 10 -10 6 1 11 -4 10 -10 -2 -7 3 -12 10 -10 6 1 11 -4 10 -10 -2 -7
3 -12 10 -10 6 1 11 -4 10 -10 -2 -7 3 -12 10 -10 6 1 11 -4 10 -10 -2 -7 3
-12 10 -10 6 1 11 -4 10 -10 -2 -7 3 -12 10 -10 6 1 11 -4 10 -10 -2 -7 3 -12
10 -10 6 1 11 -4 10 -10 -2 -7 3 -12 10 -10 6 1 11 -4 10 -10 -2 -7 3 -12 10
-10 6 1 11 -4 10 -10 -2 -7 3 -12 10 -10 6 1 11 -4 10 -10 -2 -7 3 -12 10 -10
6 1 11 -4 10 -10 -2 -7 3 -12 9 -11 7 2 12 -3 10 -10 -1 -6 4 -11 10 -10 7 2
12 -3 10 -10 -1 -6 4 -11 10 -10 7 2 12 -3 10 -10 -1 -6 4 -11 10 -10 7 2 12
-3 10 -10 -1 -6 4 -11 10 -10 7 2 12 -3 10 -10 -1 -6 4 -11 10 -10 7 2 12 -3
10 -10 -1 -6 4 -11 10 -10 7 2 12 -3 10 -10 -1 -6 4 -11 10 -10 7 2 12 -3 10
-10 -1 -6 4 -11 10 -10 7 2 12 -3 10 -10 -1 -6 4 -11 10 -10 7 2 12 -3 10 -10
-1 -6 4 -11 10 -10 7 2 12 -3 10 -10 -1 -6 4 -11 10 -10 7 2 12 -3 10 -10 -1
-6 4 -11 10 -10 7 2 12 -3 10 -10 -1 -6 4 -11 10 -10 7 2 12 -3 10 -10 -1 -6
4 -11 10 -10 7 2 12 -3 10 -10 -1 -6 4 -11 10 -10 7 2 12 -3 10 -10 -1 -6 4
-11 10 -10 7 2 12 -3 10 -10 -1 -6 4 -11 10 -10 7 2 12 -3 10 -10 -1 -6 4 -11
10 -10 7 2 12 -3 10 -10 -1 -6 4 -11 10 -10 7 2 12 -3 10 -10 -1 -6 4 -11 10
-10 7 2 12 -3 10 -10 -1 -6 4 -11 10 -10 7 2 12 -3 10 -10 -1 -6 4 -11 10 -10
7 2 12 -3 10 -10 -1 -6 4 -11 10 -10 7 2 12 -3 10 -10 -1 -6 4 -11 10 -10 7 2
12 -3 10 -10 -1 -6 3 -11 9 -10 6 1 11 -5 11 -13 0 -12 -2 -12 -16 0 -9 8 -19
15 -23 16 -4 0 -18 4 -30 9 -16 6 -18 10 -9 16 9 5 -144 166 -505 528 -286
287 -507 511 -493 499 14 -12 29 -19 33 -15z"/>
<path d="M17288 9735 c-217 -41 -404 -138 -533 -277 -113 -121 -158 -244 -157
-434 2 -413 220 -648 812 -878 357 -139 457 -192 563 -297 47 -47 77 -88 100
-136 29 -63 32 -76 32 -173 0 -92 -3 -111 -25 -153 -41 -81 -141 -161 -235
-189 -297 -88 -633 -21 -843 167 -100 90 -194 236 -224 350 l-12 45 -93 0 -93
0 0 -360 0 -360 79 0 78 0 7 48 c3 27 18 72 32 100 l26 52 46 -34 c116 -84
290 -151 470 -181 143 -24 422 -17 537 14 224 59 429 212 524 391 57 107 76
197 76 365 -1 130 -4 159 -24 215 -50 141 -149 261 -296 359 -87 57 -292 160
-530 266 -463 207 -631 354 -643 565 -6 113 14 168 92 245 103 102 215 143
416 152 186 8 312 -25 450 -118 120 -80 209 -215 233 -353 l11 -66 88 0 88 0
0 330 0 330 -84 0 -83 0 -7 -31 c-3 -17 -13 -46 -22 -65 l-16 -34 -27 19 c-56
40 -159 84 -250 108 -83 22 -122 26 -291 29 -142 2 -216 -1 -272 -11z"/>
<path d="M11890 9650 l0 -70 135 0 135 0 0 -1200 0 -1200 -135 0 -135 0 0 -70
0 -70 525 0 525 0 0 70 0 70 -150 0 -150 0 0 565 0 565 645 0 645 0 0 -565 0
-565 -145 0 -145 0 0 -70 0 -70 525 0 525 0 0 70 0 70 -140 0 -140 0 0 1200 0
1200 140 0 140 0 0 70 0 70 -525 0 -525 0 0 -70 0 -70 145 0 145 0 0 -560 0
-560 -645 0 -645 0 0 560 0 560 150 0 150 0 0 70 0 70 -525 0 -525 0 0 -70z"/>
<path d="M14940 9650 l0 -70 177 0 176 0 -6 -787 c-4 -434 -7 -974 -7 -1200
l0 -413 -170 0 -170 0 0 -70 0 -70 585 0 585 0 0 70 0 70 -170 0 -170 0 0
1200 0 1200 170 0 170 0 0 70 0 70 -585 0 -585 0 0 -70z"/>
<path d="M18740 9651 l0 -71 150 0 150 0 0 -1200 0 -1200 -150 0 -150 0 0 -70
0 -70 610 0 610 0 0 70 0 70 -220 0 -220 0 0 379 0 379 313 5 c296 4 317 6
415 31 293 74 484 225 598 470 64 139 78 217 78 421 0 209 -15 281 -86 425
-33 69 -58 101 -132 175 -104 103 -182 149 -318 189 -206 59 -204 59 -955 63
l-693 4 0 -70z m1260 -91 c145 -31 277 -136 344 -271 51 -104 76 -212 83 -360
18 -369 -107 -687 -314 -796 -104 -55 -149 -64 -380 -70 l-213 -6 0 763 0 763
213 -6 c116 -3 237 -11 267 -17z"/>
<path d="M22200 9650 l0 -70 118 0 117 0 444 -1023 c245 -562 496 -1140 559
-1284 l115 -263 81 0 81 0 484 1285 484 1285 134 0 133 0 0 70 0 70 -395 0
-395 0 0 -70 0 -70 161 0 c98 0 159 -4 157 -10 -87 -252 -715 -1946 -719
-1942 -7 7 -747 1902 -756 1935 -5 16 7 17 161 17 l166 0 0 70 0 70 -565 0
-565 0 0 -70z"/>
<path d="M25440 9659 c-80 -33 -133 -114 -146 -221 -6 -50 -3 -64 20 -112 34
-69 84 -112 155 -132 89 -27 179 -4 243 60 47 46 68 101 68 177 0 86 -36 160
-99 204 -39 27 -51 30 -129 32 -48 2 -98 -2 -112 -8z"/>
<path d="M28891 9454 c-91 -35 -242 -73 -322 -80 l-69 -7 0 -268 0 -269 -105
0 -105 0 0 -70 0 -70 104 0 105 0 3 -622 c4 -686 3 -669 69 -799 61 -122 186
-210 344 -244 107 -23 303 -20 395 6 103 28 194 78 264 145 l58 56 -23 25
c-13 14 -37 34 -52 45 l-28 20 -39 -36 c-60 -54 -109 -83 -173 -101 -162 -46
-278 5 -325 144 -14 40 -17 135 -20 704 l-3 657 290 0 291 0 0 70 0 70 -290 0
-290 0 0 325 c0 179 -3 325 -7 324 -5 0 -37 -12 -72 -25z"/>
<path d="M27035 8850 c-260 -41 -492 -194 -630 -415 -97 -154 -129 -297 -122
-530 4 -136 8 -173 31 -249 92 -307 306 -513 633 -612 73 -22 113 -28 238 -32
158 -5 236 4 360 40 83 24 212 86 269 130 45 34 176 159 176 168 0 3 -23 25
-50 48 l-51 44 -47 -44 c-49 -46 -144 -113 -199 -141 -117 -61 -306 -91 -428
-68 -274 50 -445 323 -445 709 l0 92 630 0 630 0 0 64 c0 173 -62 386 -149
515 -86 125 -204 208 -366 256 -78 23 -112 27 -255 30 -91 2 -192 0 -225 -5z
m310 -175 c28 -13 62 -37 77 -52 65 -70 114 -219 125 -385 l6 -98 -388 0 -388
0 7 61 c31 274 158 461 340 499 64 14 164 3 221 -25z"/>
<path d="M30940 8844 c-36 -7 -85 -21 -109 -30 -62 -24 -188 -97 -246 -143
l-50 -41 -3 100 -3 100 -374 0 -375 0 0 -70 0 -70 140 0 140 0 0 -755 0 -755
-140 0 -140 0 0 -70 0 -70 535 0 535 0 0 70 0 70 -160 0 -160 0 0 620 c0 713
-11 637 109 732 136 109 251 153 396 153 77 0 96 -4 134 -25 53 -30 104 -101
122 -167 9 -35 13 -221 16 -680 l4 -633 -160 0 -161 0 0 -70 0 -70 530 0 530
0 0 70 0 70 -140 0 -139 0 -3 613 c-3 561 -5 617 -22 667 -32 95 -67 153 -135
221 -77 77 -169 128 -287 159 -93 24 -282 26 -384 4z"/>
<path d="M32848 8841 c-177 -39 -295 -92 -384 -174 -91 -82 -132 -204 -104
-307 15 -56 91 -134 147 -149 53 -15 147 -14 186 3 43 18 111 94 127 141 28
86 -15 215 -86 257 -34 20 -34 21 -15 35 34 23 126 51 211 64 197 28 339 -32
404 -171 20 -42 21 -66 24 -343 l4 -298 -39 23 c-135 84 -259 112 -471 105
-175 -5 -236 -17 -347 -71 -190 -93 -275 -225 -275 -426 0 -231 131 -397 381
-487 63 -22 95 -27 219 -30 107 -4 164 -1 219 11 101 21 223 83 296 149 l60
55 20 -40 c47 -97 170 -169 300 -176 139 -7 254 29 340 109 71 66 72 70 14
113 l-49 38 -41 -36 c-70 -64 -116 -68 -147 -12 -15 28 -18 89 -22 611 -6 560
-7 582 -27 637 -29 76 -39 94 -86 156 -74 98 -194 168 -347 203 -128 30 -396
35 -512 10z m284 -982 c61 -13 148 -56 201 -100 l37 -30 0 -173 0 -173 -50
-49 c-99 -96 -209 -147 -320 -147 -154 -1 -258 82 -289 231 -21 101 -9 227 29
302 60 116 224 174 392 139z"/>
<path d="M35366 8844 c-84 -20 -210 -83 -289 -142 -37 -29 -70 -52 -73 -52 -2
0 -4 41 -4 90 l0 90 -370 0 -370 0 0 -70 0 -70 140 0 140 0 0 -755 0 -755
-140 0 -140 0 0 -70 0 -70 515 0 515 0 0 70 0 70 -145 0 -145 0 0 633 0 634
63 60 c111 106 206 155 344 174 114 16 175 0 235 -61 84 -87 82 -63 86 -797
l3 -643 -145 0 -146 0 0 -70 0 -70 520 0 520 0 0 70 0 70 -145 0 -145 0 0 583
c0 320 -3 599 -6 619 -6 35 -3 39 77 120 103 104 192 153 312 174 135 24 221
2 287 -72 75 -86 80 -139 80 -851 l0 -573 -150 0 -150 0 0 -70 0 -70 520 0
520 0 0 70 0 70 -140 0 -139 0 -3 613 -3 612 -27 73 c-64 177 -188 292 -383
354 -89 29 -298 36 -401 13 -143 -31 -287 -111 -410 -227 l-50 -47 -35 52
c-68 100 -188 178 -334 216 -95 25 -295 28 -389 5z"/>
<path d="M25040 8760 l0 -70 130 0 130 0 0 -755 0 -755 -140 0 -140 0 0 -70 0
-70 520 0 520 0 0 70 0 70 -140 0 -140 0 0 825 0 825 -370 0 -370 0 0 -70z"/>
<path d="M16543 5934 c-23 -23 -25 -31 -21 -81 6 -69 30 -93 93 -93 63 0 87
24 93 91 3 45 0 59 -18 82 -18 23 -29 27 -71 27 -40 0 -55 -5 -76 -26z"/>
<path d="M21610 5926 c0 -32 1 -34 46 -39 32 -3 55 -13 73 -31 l26 -26 3 -448
c2 -246 0 -462 -3 -481 -8 -44 -46 -81 -84 -81 -49 0 -61 -9 -61 -46 l0 -34
230 0 230 0 0 34 c0 32 -2 34 -46 41 -111 16 -104 -22 -104 610 l0 535 -155 0
-155 0 0 -34z"/>
<path d="M31450 5926 c0 -32 1 -34 47 -39 35 -4 53 -12 70 -32 l23 -26 0 -480
0 -480 -25 -24 c-15 -15 -36 -25 -54 -25 -49 0 -61 -9 -61 -46 l0 -34 220 0
220 0 0 35 c0 33 -2 35 -42 41 -24 4 -52 17 -66 31 l-23 23 3 253 3 252 28 48
c38 64 90 91 167 85 72 -5 106 -27 133 -86 20 -44 22 -67 25 -364 l4 -318 139
0 139 0 0 34 c0 32 -3 34 -45 45 -72 18 -72 21 -78 316 -5 289 -14 338 -69
401 -55 63 -99 79 -213 79 -88 0 -105 -3 -143 -25 -24 -13 -56 -42 -71 -62
l-28 -38 5 235 5 235 -157 0 -156 0 0 -34z"/>
<path d="M34410 5925 c0 -32 2 -35 31 -35 48 0 96 -27 108 -62 7 -20 11 -185
11 -475 0 -360 -3 -450 -14 -478 -16 -37 -42 -55 -80 -55 -44 0 -56 -10 -56
-46 l0 -34 134 0 134 0 12 53 c7 28 15 56 17 60 3 4 18 -10 34 -32 17 -24 51
-52 81 -68 46 -24 64 -27 138 -27 107 1 173 27 230 91 88 101 124 317 85 519
-38 197 -134 284 -316 284 -98 0 -169 -33 -214 -100 l-30 -45 4 242 3 243
-156 0 -156 0 0 -35z m593 -430 c88 -36 121 -138 115 -349 -3 -133 -5 -145
-33 -201 -40 -80 -78 -105 -158 -105 -154 0 -214 109 -204 369 5 142 22 205
69 251 48 48 142 64 211 35z"/>
<path d="M28192 5899 c-146 -24 -241 -124 -250 -263 -11 -179 72 -290 288
-382 210 -89 266 -154 246 -289 -8 -50 -49 -106 -95 -130 -81 -42 -201 -25
-262 36 -39 39 -69 114 -69 172 0 28 -2 29 -32 23 -85 -17 -115 -78 -88 -178
24 -85 109 -142 238 -159 150 -19 290 14 371 87 80 72 96 109 96 229 0 84 -4
107 -22 141 -37 69 -107 121 -263 196 -80 39 -160 82 -179 95 -62 48 -90 159
-57 236 29 70 118 115 204 102 76 -11 142 -92 142 -174 0 -45 105 -17 128 34
17 37 15 63 -9 112 -46 94 -209 142 -387 112z"/>
<path d="M29497 5900 c-77 -14 -154 -56 -184 -101 -30 -45 -41 -117 -24 -157
14 -32 66 -62 110 -62 28 0 29 2 33 58 5 74 34 131 78 157 46 26 135 27 174 1
72 -46 91 -199 42 -329 -39 -103 -67 -141 -318 -433 l-148 -171 0 -62 0 -61
350 0 350 0 0 73 c0 39 3 102 7 140 l6 67 -41 0 c-37 0 -42 -3 -48 -27 -12
-49 -34 -82 -64 -98 -23 -12 -69 -15 -225 -15 l-195 0 156 173 c264 291 330
381 359 492 19 75 19 108 -1 174 -33 111 -141 181 -288 187 -45 1 -103 -1
-129 -6z"/>
<path d="M12250 5856 c0 -33 1 -34 50 -41 38 -5 56 -14 75 -37 l25 -30 0 -436
c-1 -328 -4 -441 -13 -453 -17 -22 -51 -39 -81 -39 -44 0 -56 -10 -56 -46 l0
-34 240 0 240 0 0 34 c0 33 -1 34 -51 41 -30 4 -61 16 -77 30 l-27 23 -3 186
-4 186 66 0 65 0 112 -187 c175 -294 184 -301 351 -310 l99 -6 -3 39 c-3 35
-6 39 -37 45 -52 11 -100 67 -230 273 l-119 189 48 23 c62 28 126 87 152 138
13 26 23 68 26 112 12 180 -82 293 -269 323 -35 6 -180 11 -321 11 l-258 0 0
-34z m563 -74 c76 -34 106 -91 107 -203 1 -180 -73 -249 -267 -249 l-83 0 0
242 0 241 100 -6 c65 -4 115 -13 143 -25z"/>
<path d="M23490 5856 c0 -33 1 -34 50 -41 38 -5 56 -14 75 -37 l26 -30 -3
-440 -3 -440 -28 -24 c-16 -13 -41 -24 -57 -24 -48 0 -60 -9 -60 -46 l0 -34
283 0 c308 0 378 9 475 56 173 85 274 305 259 566 -11 177 -55 295 -147 388
-122 123 -191 140 -582 140 l-288 0 0 -34z m612 -83 c144 -66 218 -222 218
-460 0 -173 -50 -326 -129 -395 -69 -60 -133 -81 -263 -86 l-118 -4 0 487 0
487 123 -4 c97 -3 131 -8 169 -25z"/>
<path d="M25120 5856 c0 -33 1 -34 49 -41 33 -4 56 -15 73 -32 l23 -25 0 -445
0 -445 -28 -24 c-16 -13 -41 -24 -57 -24 -48 0 -60 -9 -60 -46 l0 -34 235 0
235 0 0 34 c0 32 -2 34 -45 41 -25 3 -58 17 -73 30 l-27 23 -3 216 -3 216 255
0 256 0 0 -211 0 -211 -29 -29 c-20 -19 -40 -29 -59 -29 -50 0 -62 -9 -62 -46
l0 -34 235 0 235 0 0 34 c0 34 -2 35 -46 42 -25 3 -58 17 -72 29 l-27 23 -3
414 c-2 227 0 428 3 447 8 44 46 81 84 81 49 0 61 9 61 46 l0 34 -235 0 -235
0 0 -34 c0 -33 2 -34 47 -41 31 -4 55 -16 75 -35 l28 -28 0 -181 0 -181 -256
0 -255 0 3 186 3 186 28 24 c16 13 41 24 57 24 48 0 60 9 60 46 l0 34 -235 0
-235 0 0 -34z"/>
<path d="M26850 5856 c0 -33 1 -34 52 -41 34 -5 59 -15 75 -31 l23 -23 0 -446
0 -446 -25 -24 c-16 -17 -35 -25 -59 -25 -54 0 -66 -8 -66 -46 l0 -34 240 0
240 0 0 34 c0 33 -1 34 -52 41 -34 5 -59 15 -75 31 l-23 23 0 446 0 446 25 24
c14 15 36 25 52 25 58 0 73 10 73 46 l0 34 -240 0 -240 0 0 -34z"/>
<path d="M15722 5646 c-17 -9 -47 -26 -65 -40 l-33 -26 -52 20 c-34 13 -77 20
-124 20 -207 0 -309 -97 -309 -294 0 -93 27 -161 84 -212 l40 -37 -24 -20
c-44 -35 -59 -68 -59 -129 0 -50 4 -62 31 -92 l30 -35 -50 -22 c-93 -40 -139
-121 -126 -220 12 -88 74 -156 171 -185 65 -19 272 -19 349 1 174 46 255 150
242 311 -6 79 -32 131 -84 167 -55 39 -96 46 -258 47 -162 0 -188 8 -193 58
-3 26 3 39 28 62 30 28 38 30 109 30 142 0 232 46 277 144 34 73 34 199 -1
273 -26 56 -24 61 21 65 38 3 54 -8 54 -34 0 -18 4 -20 33 -14 49 10 76 58 63
111 -13 50 -95 77 -154 51z m-209 -136 c43 -34 60 -96 55 -202 -5 -106 -21
-142 -75 -164 -71 -30 -141 -6 -173 60 -15 32 -20 62 -20 120 0 148 38 206
134 206 38 0 61 -6 79 -20z m117 -778 c63 -31 78 -103 38 -182 -31 -61 -82
-88 -195 -101 -105 -13 -177 -1 -223 37 -54 46 -63 152 -18 210 36 45 71 53
223 54 114 0 147 -3 175 -18z"/>
<path d="M14022 5601 c-127 -44 -198 -146 -222 -322 -21 -153 5 -308 69 -408
65 -101 155 -144 301 -144 75 0 107 4 153 22 93 36 139 93 129 159 -6 36 -30
38 -65 4 -85 -80 -230 -99 -322 -42 -55 34 -105 156 -105 255 l0 35 266 0 267
0 -6 103 c-7 137 -32 205 -102 274 -39 38 -68 56 -106 67 -71 22 -191 20 -257
-3z m202 -92 c47 -22 95 -137 96 -231 l0 -28 -180 0 c-99 0 -180 4 -180 8 0
66 50 203 84 231 45 37 122 46 180 20z"/>
<path d="M17677 5610 c-167 -42 -257 -194 -257 -435 0 -220 69 -355 214 -420
143 -65 350 -29 439 76 72 84 100 182 100 349 -1 219 -66 348 -211 412 -53 24
-219 34 -285 18z m213 -105 c41 -21 76 -68 96 -127 23 -67 27 -313 6 -395 -28
-107 -96 -164 -197 -164 -121 0 -185 81 -207 262 -19 164 15 341 77 399 52 49
156 60 225 25z"/>
<path d="M19208 5610 c-40 -12 -86 -48 -118 -91 l-28 -39 -6 38 c-4 20 -9 49
-12 65 l-6 27 -134 0 -134 0 0 -40 c0 -38 2 -40 30 -40 44 0 85 -24 99 -58 8
-20 11 -111 9 -316 l-3 -288 -28 -24 c-16 -13 -41 -24 -57 -24 -48 0 -60 -9
-60 -46 l0 -34 220 0 220 0 0 34 c0 31 -3 34 -44 45 -50 12 -73 31 -82 66 -3
12 -4 126 -2 251 3 213 5 232 25 270 43 80 106 113 195 101 52 -7 88 -33 113
-83 19 -36 20 -62 23 -361 l3 -323 145 0 144 0 0 35 c0 21 -5 35 -12 35 -7 0
-30 5 -50 11 -64 17 -68 35 -68 302 0 138 -5 257 -12 292 -16 81 -60 143 -127
177 -46 24 -64 28 -135 27 -44 0 -93 -4 -108 -9z"/>
<path d="M20515 5611 c-50 -13 -114 -50 -130 -75 -17 -25 -22 -88 -11 -124 8
-24 63 -52 104 -52 28 0 30 3 35 46 9 83 56 124 142 124 99 0 130 -40 141
-185 l7 -91 -144 -11 c-169 -13 -242 -36 -298 -92 -47 -47 -65 -109 -59 -199
9 -118 61 -188 165 -218 123 -36 240 8 320 120 l21 30 12 -72 13 -72 114 0
114 0 -3 37 c-3 34 -6 38 -38 44 -59 12 -60 18 -60 283 0 133 -5 270 -10 305
-12 87 -51 147 -115 180 -44 23 -63 26 -170 28 -66 1 -133 -2 -150 -6z m282
-531 c-7 -112 -30 -168 -87 -209 -77 -56 -177 -50 -224 12 -17 23 -21 42 -20
96 1 135 74 187 263 190 l74 1 -6 -90z"/>
<path d="M16410 5571 c0 -38 1 -38 42 -44 29 -4 50 -14 65 -32 23 -26 23 -29
23 -323 -1 -218 -4 -301 -13 -313 -17 -22 -51 -39 -81 -39 -44 0 -56 -10 -56
-46 l0 -34 230 0 230 0 0 34 c0 34 -2 35 -46 42 -25 3 -58 17 -72 29 l-27 23
-3 371 -3 371 -144 0 -145 0 0 -39z"/>
<path d="M32940 5570 c0 -39 1 -40 35 -40 24 0 45 -9 67 -29 l33 -29 5 -284
c6 -318 11 -341 82 -404 50 -44 100 -59 190 -58 102 1 156 22 212 85 l44 49 6
-30 c3 -16 9 -43 12 -60 l6 -30 129 0 129 0 0 35 c0 33 -2 35 -42 41 -23 4
-52 17 -65 30 l-23 23 0 371 0 370 -150 0 -150 0 0 -40 c0 -39 1 -40 35 -40
24 0 44 -9 67 -29 l33 -29 0 -229 c0 -243 -5 -278 -51 -339 -31 -42 -84 -66
-151 -66 -59 -1 -89 15 -127 66 -20 26 -21 42 -24 367 l-3 339 -149 0 -150 0
0 -40z"/>
</g>
</svg>
